<svg width="16" height="16" viewBox="0 0 16 16" fill="none" xmlns="http://www.w3.org/2000/svg">
<path d="M13.3333 7.00008C13.1565 7.00008 12.9869 7.07032 12.8619 7.19534C12.7369 7.32037 12.6666 7.48994 12.6666 7.66675V12.3334C12.6666 12.5102 12.5964 12.6798 12.4714 12.8048C12.3463 12.9298 12.1768 13.0001 12 13.0001H2.66663C2.48981 13.0001 2.32025 12.9298 2.19522 12.8048C2.0702 12.6798 1.99996 12.5102 1.99996 12.3334V7.00008C1.99996 6.82327 2.0702 6.6537 2.19522 6.52868C2.32025 6.40365 2.48981 6.33341 2.66663 6.33341H3.99996C4.14534 6.341 4.2892 6.3008 4.40958 6.21894C4.52996 6.13708 4.62024 6.01807 4.66663 5.88008L5.02663 4.78675C5.07135 4.65433 5.15656 4.53932 5.27021 4.45798C5.38386 4.37663 5.5202 4.33305 5.65996 4.33341H9.33329C9.5101 4.33341 9.67967 4.26318 9.8047 4.13815C9.92972 4.01313 9.99996 3.84356 9.99996 3.66675C9.99996 3.48994 9.92972 3.32037 9.8047 3.19534C9.67967 3.07032 9.5101 3.00008 9.33329 3.00008H5.62663C5.20766 3.00087 4.79952 3.1332 4.4598 3.37842C4.12009 3.62363 3.86597 3.96934 3.73329 4.36675L3.51996 5.03341H2.66663C2.13619 5.03341 1.62749 5.24413 1.25241 5.6192C0.87734 5.99427 0.666626 6.50298 0.666626 7.03341V12.3667C0.666626 12.8972 0.87734 13.4059 1.25241 13.781C1.62749 14.156 2.13619 14.3667 2.66663 14.3667H12C12.5304 14.3667 13.0391 14.156 13.4142 13.781C13.7892 13.4059 14 12.8972 14 12.3667V7.70008C14.0045 7.60977 13.9906 7.51948 13.9591 7.43471C13.9276 7.34994 13.8792 7.27246 13.8169 7.20698C13.7545 7.1415 13.6795 7.08939 13.5964 7.05382C13.5132 7.01825 13.4237 6.99997 13.3333 7.00008ZM7.33329 6.33341C6.80588 6.33341 6.2903 6.48981 5.85177 6.78283C5.41324 7.07585 5.07145 7.49232 4.86961 7.97959C4.66778 8.46686 4.61497 9.00304 4.71786 9.52032C4.82076 10.0376 5.07473 10.5128 5.44767 10.8857C5.82061 11.2586 6.29577 11.5126 6.81305 11.6155C7.33033 11.7184 7.86651 11.6656 8.35378 11.4638C8.84105 11.2619 9.25753 10.9201 9.55054 10.4816C9.84356 10.0431 9.99996 9.5275 9.99996 9.00008C9.99996 8.29284 9.71901 7.61456 9.21891 7.11446C8.71881 6.61437 8.04054 6.33341 7.33329 6.33341ZM7.33329 10.3334C7.06958 10.3334 6.8118 10.2552 6.59253 10.1087C6.37327 9.9622 6.20237 9.75396 6.10145 9.51033C6.00054 9.26669 5.97413 8.9986 6.02558 8.73996C6.07703 8.48132 6.20401 8.24374 6.39048 8.05727C6.57695 7.8708 6.81453 7.74381 7.07317 7.69237C7.33181 7.64092 7.5999 7.66732 7.84354 7.76824C8.08717 7.86916 8.29541 8.04006 8.44192 8.25932C8.58843 8.47859 8.66663 8.73637 8.66663 9.00008C8.66663 9.3537 8.52615 9.69284 8.2761 9.94289C8.02605 10.1929 7.68691 10.3334 7.33329 10.3334ZM14.6666 3.00008H14V2.33341C14 2.1566 13.9297 1.98703 13.8047 1.86201C13.6797 1.73699 13.5101 1.66675 13.3333 1.66675C13.1565 1.66675 12.9869 1.73699 12.8619 1.86201C12.7369 1.98703 12.6666 2.1566 12.6666 2.33341V3.00008H12C11.8231 3.00008 11.6536 3.07032 11.5286 3.19534C11.4035 3.32037 11.3333 3.48994 11.3333 3.66675C11.3333 3.84356 11.4035 4.01313 11.5286 4.13815C11.6536 4.26318 11.8231 4.33341 12 4.33341H12.6666V5.00008C12.6666 5.17689 12.7369 5.34646 12.8619 5.47149C12.9869 5.59651 13.1565 5.66675 13.3333 5.66675C13.5101 5.66675 13.6797 5.59651 13.8047 5.47149C13.9297 5.34646 14 5.17689 14 5.00008V4.33341H14.6666C14.8434 4.33341 15.013 4.26318 15.138 4.13815C15.2631 4.01313 15.3333 3.84356 15.3333 3.66675C15.3333 3.48994 15.2631 3.32037 15.138 3.19534C15.013 3.07032 14.8434 3.00008 14.6666 3.00008Z" fill="white"/>
</svg>
